<svg xmlns="http://www.w3.org/2000/svg" xmlns:xlink="http://www.w3.org/1999/xlink" version="1.2" width="100mm" height="100mm" viewBox="0 0 100 100" stroke="none" fill="#000000" stroke-width="0.3" font-size="3.88">
<defs>
  <marker id="arrow" markerWidth="15" markerHeight="7" refX="5" refY="3.5" orient="auto" markerUnits="strokeWidth">
    <path d="M0,0 L15,3.5 L0,7 z" stroke="context-stroke" fill="context-stroke"></path>
  </marker>
</defs>
<g fill="#000000" fill-opacity="0.000" id="img-1eb8643c-1">
  <g transform="translate(50,50)">
    <path d="M-50,-50 L50,-50 50,50 -50,50  z" class="primitive"></path>
  </g>
</g>
<g stroke-width="0.38" stroke="#D3D3D3" id="img-1eb8643c-2">
</g>
<g stroke-width="0.38" stroke="#D3D3D3" id="img-1eb8643c-3">
  <g transform="translate(30.92,39.43)">
    <path fill="none" d="M0.41,0.05 L-0.41,-0.05 " class="primitive"></path>
  </g>
  <g transform="translate(28.72,43.38)">
    <path fill="none" d="M2.97,-2.81 L-2.97,2.81 " class="primitive"></path>
  </g>
  <g transform="translate(31.96,35.23)">
    <path fill="none" d="M0.49,3.12 L-0.49,-3.12 " class="primitive"></path>
  </g>
  <g transform="translate(32.85,43.92)">
    <path fill="none" d="M-0.14,-2.94 L0.14,2.94 " class="primitive"></path>
  </g>
  <g transform="translate(33.53,41.35)">
    <path fill="none" d="M-0.27,-0.52 L0.27,0.52 " class="primitive"></path>
  </g>
  <g transform="translate(35.34,42.58)">
    <path fill="none" d="M-1.8,-1.95 L1.8,1.95 " class="primitive"></path>
  </g>
  <g transform="translate(60.74,66.68)">
    <path fill="none" d="M-4.01,-4.94 L4.01,4.94 " class="primitive"></path>
  </g>
  <g transform="translate(55.41,58.37)">
    <path fill="none" d="M0.22,1.05 L-0.22,-1.05 " class="primitive"></path>
  </g>
  <g transform="translate(60.13,58.55)">
    <path fill="none" d="M-3.06,1.56 L3.06,-1.56 " class="primitive"></path>
  </g>
  <g transform="translate(58.51,61.01)">
    <path fill="none" d="M-1.3,-0.15 L1.3,0.15 " class="primitive"></path>
  </g>
  <g transform="translate(49.3,57.09)">
    <path fill="none" d="M5.44,2.98 L-5.44,-2.98 " class="primitive"></path>
  </g>
  <g transform="translate(48.38,55.77)">
    <path fill="none" d="M6.41,4.22 L-6.41,-4.22 " class="primitive"></path>
  </g>
  <g transform="translate(61.22,64.65)">
    <path fill="none" d="M-4.26,-3.15 L4.26,3.15 " class="primitive"></path>
  </g>
  <g transform="translate(58.94,63.89)">
    <path fill="none" d="M-2.13,-2.22 L2.13,2.22 " class="primitive"></path>
  </g>
  <g transform="translate(26.52,42.57)">
    <path fill="none" d="M-1.86,2.34 L1.86,-2.34 " class="primitive"></path>
  </g>
  <g transform="translate(29.12,44.49)">
    <path fill="none" d="M-4.01,1.1 L4.01,-1.1 " class="primitive"></path>
  </g>
  <g transform="translate(24.29,52.16)">
    <path fill="none" d="M-0.36,-4.89 L0.36,4.89 " class="primitive"></path>
  </g>
  <g transform="translate(19.45,47.5)">
    <path fill="none" d="M3.14,-1.11 L-3.14,1.11 " class="primitive"></path>
  </g>
  <g transform="translate(33.18,44.82)">
    <path fill="none" d="M-0.75,-0.62 L0.75,0.62 " class="primitive"></path>
  </g>
  <g transform="translate(28.1,45.23)">
    <path fill="none" d="M2.16,-1.22 L-2.16,1.22 " class="primitive"></path>
  </g>
  <g transform="translate(34.11,40.76)">
    <path fill="none" d="M-1.75,1.68 L1.75,-1.68 " class="primitive"></path>
  </g>
  <g transform="translate(23.02,17.39)">
    <path fill="none" d="M-2.11,-6.04 L2.11,6.04 " class="primitive"></path>
  </g>
  <g transform="translate(74.6,78.1)">
    <path fill="none" d="M0.41,1.59 L-0.41,-1.59 " class="primitive"></path>
  </g>
  <g transform="translate(73.59,77.03)">
    <path fill="none" d="M1.21,2.73 L-1.21,-2.73 " class="primitive"></path>
  </g>
  <g transform="translate(76.92,83.61)">
    <path fill="none" d="M-0.91,-1.51 L0.91,1.51 " class="primitive"></path>
  </g>
  <g transform="translate(70.93,78.7)">
    <path fill="none" d="M3.23,1.66 L-3.23,-1.66 " class="primitive"></path>
  </g>
  <g transform="translate(72.22,76.34)">
    <path fill="none" d="M-0.55,0.37 L0.55,-0.37 " class="primitive"></path>
  </g>
  <g transform="translate(71.21,75.27)">
    <path fill="none" d="M-0.27,0.91 L0.27,-0.91 " class="primitive"></path>
  </g>
  <g transform="translate(68.08,75.05)">
    <path fill="none" d="M1.54,1.49 L-1.54,-1.49 " class="primitive"></path>
  </g>
  <g transform="translate(66.28,72.26)">
    <path fill="none" d="M3.45,4.17 L-3.45,-4.17 " class="primitive"></path>
  </g>
  <g transform="translate(74.54,81.86)">
    <path fill="none" d="M-3.08,-3.42 L3.08,3.42 " class="primitive"></path>
  </g>
  <g transform="translate(68.55,76.94)">
    <path fill="none" d="M0.74,0.19 L-0.74,-0.19 " class="primitive"></path>
  </g>
  <g transform="translate(52.48,56.34)">
    <path fill="none" d="M-1.14,0.14 L1.14,-0.14 " class="primitive"></path>
  </g>
  <g transform="translate(55.57,58.98)">
    <path fill="none" d="M-4.33,-1.82 L4.33,1.82 " class="primitive"></path>
  </g>
  <g transform="translate(47.89,52.94)">
    <path fill="none" d="M1.47,2.56 L-1.47,-2.56 " class="primitive"></path>
  </g>
  <g transform="translate(41.54,52.41)">
    <path fill="none" d="M7.3,3.64 L-7.3,-3.64 " class="primitive"></path>
  </g>
  <g transform="translate(56,61.86)">
    <path fill="none" d="M-4.98,-4.34 L4.98,4.34 " class="primitive"></path>
  </g>
  <g transform="translate(32.96,48.22)">
    <path fill="none" d="M1.04,-1.01 L-1.04,1.01 " class="primitive"></path>
  </g>
  <g transform="translate(38.82,49.88)">
    <path fill="none" d="M-2.9,-2.7 L2.9,2.7 " class="primitive"></path>
  </g>
  <g transform="translate(30.81,47.49)">
    <path fill="none" d="M2.87,-0.83 L-2.87,0.83 " class="primitive"></path>
  </g>
  <g transform="translate(31.76,40.6)">
    <path fill="none" d="M2.54,4.53 L-2.54,-4.53 " class="primitive"></path>
  </g>
  <g transform="translate(35.88,42.22)">
    <path fill="none" d="M-0.63,2.77 L0.63,-2.77 " class="primitive"></path>
  </g>
  <g transform="translate(72.85,74.16)">
    <path fill="none" d="M0.1,0.11 L-0.1,-0.11 " class="primitive"></path>
  </g>
  <g transform="translate(69.73,73.93)">
    <path fill="none" d="M2.87,0.9 L-2.87,-0.9 " class="primitive"></path>
  </g>
  <g transform="translate(78.21,75.96)">
    <path fill="none" d="M-3.04,-0.51 L3.04,0.51 " class="primitive"></path>
  </g>
  <g transform="translate(70.21,71.91)">
    <path fill="none" d="M2.68,2.43 L-2.68,-2.43 " class="primitive"></path>
  </g>
  <g transform="translate(70.19,75.83)">
    <path fill="none" d="M2.37,-0.39 L-2.37,0.39 " class="primitive"></path>
  </g>
  <g transform="translate(24.71,36.66)">
    <path fill="none" d="M3.34,1.89 L-3.34,-1.89 " class="primitive"></path>
  </g>
  <g transform="translate(31.81,41.12)">
    <path fill="none" d="M-1.54,-1.14 L1.54,1.14 " class="primitive"></path>
  </g>
  <g transform="translate(33.62,42.35)">
    <path fill="none" d="M-3.34,-2.38 L3.34,2.38 " class="primitive"></path>
  </g>
  <g transform="translate(25.24,16.51)">
    <path fill="none" d="M-0.28,-6.86 L0.28,6.86 " class="primitive"></path>
  </g>
  <g transform="translate(14.88,47.65)">
    <path fill="none" d="M-4.48,-0.81 L4.48,0.81 " class="primitive"></path>
  </g>
  <g transform="translate(68.72,72.87)">
    <path fill="none" d="M1.81,0.13 L-1.81,-0.13 " class="primitive"></path>
  </g>
  <g transform="translate(77.2,74.89)">
    <path fill="none" d="M-4.1,-1.38 L4.1,1.38 " class="primitive"></path>
  </g>
  <g transform="translate(69.19,70.84)">
    <path fill="none" d="M1.64,1.39 L-1.64,-1.39 " class="primitive"></path>
  </g>
  <g transform="translate(66.91,70.08)">
    <path fill="none" d="M3.8,2.32 L-3.8,-2.32 " class="primitive"></path>
  </g>
  <g transform="translate(69.18,74.76)">
    <path fill="none" d="M1.54,-0.96 L-1.54,0.96 " class="primitive"></path>
  </g>
  <g transform="translate(24.44,49.75)">
    <path fill="none" d="M0.18,-1.33 L-0.18,1.33 " class="primitive"></path>
  </g>
  <g transform="translate(24.42,38.94)">
    <path fill="none" d="M0.31,6.85 L-0.31,-6.85 " class="primitive"></path>
  </g>
  <g transform="translate(22.73,47.9)">
    <path fill="none" d="M0.83,-0.32 L-0.83,0.32 " class="primitive"></path>
  </g>
  <g transform="translate(23.01,53.77)">
    <path fill="none" d="M1.44,-5.38 L-1.44,5.38 " class="primitive"></path>
  </g>
  <g transform="translate(25.73,47.9)">
    <path fill="none" d="M0.07,0.06 L-0.07,-0.06 " class="primitive"></path>
  </g>
  <g transform="translate(22.48,51.48)">
    <path fill="none" d="M1.69,-3.21 L-1.69,3.21 " class="primitive"></path>
  </g>
  <g transform="translate(28.92,47.64)">
    <path fill="none" d="M-2.82,-0.37 L2.82,0.37 " class="primitive"></path>
  </g>
  <g transform="translate(21.06,49.46)">
    <path fill="none" d="M2.61,-1.65 L-2.61,1.65 " class="primitive"></path>
  </g>
  <g transform="translate(25.48,43.95)">
    <path fill="none" d="M-0.41,1.87 L0.41,-1.87 " class="primitive"></path>
  </g>
  <g transform="translate(23.01,45.79)">
    <path fill="none" d="M0.71,0.53 L-0.71,-0.53 " class="primitive"></path>
  </g>
  <g transform="translate(28.62,32)">
    <path fill="none" d="M1.44,-0.66 L-1.44,0.66 " class="primitive"></path>
  </g>
  <g transform="translate(27.66,30.78)">
    <path fill="none" d="M2.29,0.01 L-2.29,-0.01 " class="primitive"></path>
  </g>
  <g transform="translate(32.16,39.49)">
    <path fill="none" d="M-0.76,-7.38 L0.76,7.38 " class="primitive"></path>
  </g>
  <g transform="translate(29.92,32.86)">
    <path fill="none" d="M0.62,-0.95 L-0.62,0.95 " class="primitive"></path>
  </g>
  <g transform="translate(30.56,23.92)">
    <path fill="none" d="M0.57,5.56 L-0.57,-5.56 " class="primitive"></path>
  </g>
  <g transform="translate(34.04,34.48)">
    <path fill="none" d="M-1.97,-2.63 L1.97,2.63 " class="primitive"></path>
  </g>
  <g transform="translate(27.53,51.27)">
    <path fill="none" d="M-2.19,0.71 L2.19,-0.71 " class="primitive"></path>
  </g>
  <g transform="translate(22.38,50.54)">
    <path fill="none" d="M0.81,0.88 L-0.81,-0.88 " class="primitive"></path>
  </g>
  <g transform="translate(25.38,50.54)">
    <path fill="none" d="M-0.53,0.76 L0.53,-0.76 " class="primitive"></path>
  </g>
  <g transform="translate(22.13,54.12)">
    <path fill="none" d="M0.97,-0.86 L-0.97,0.86 " class="primitive"></path>
  </g>
  <g transform="translate(25.12,46.59)">
    <path fill="none" d="M-0.81,4.5 L0.81,-4.5 " class="primitive"></path>
  </g>
  <g transform="translate(67.36,79.45)">
    <path fill="none" d="M-1.43,-5.53 L1.43,5.53 " class="primitive"></path>
  </g>
  <g transform="translate(66.93,67.21)">
    <path fill="none" d="M-1.03,4.15 L1.03,-4.15 " class="primitive"></path>
  </g>
  <g transform="translate(63.36,66.98)">
    <path fill="none" d="M1.75,4.44 L-1.75,-4.44 " class="primitive"></path>
  </g>
  <g transform="translate(63.16,78.43)">
    <path fill="none" d="M1.92,-4.57 L-1.92,4.57 " class="primitive"></path>
  </g>
  <g transform="translate(66.06,74.54)">
    <path fill="none" d="M-0.15,-0.61 L0.15,0.61 " class="primitive"></path>
  </g>
  <g transform="translate(28.47,41.68)">
    <path fill="none" d="M-2.13,-7.21 L2.13,7.21 " class="primitive"></path>
  </g>
  <g transform="translate(24.24,34.65)">
    <path fill="none" d="M0.72,-0.6 L-0.72,0.6 " class="primitive"></path>
  </g>
  <g transform="translate(25.01,31.99)">
    <path fill="none" d="M0.14,0.18 L-0.14,-0.18 " class="primitive"></path>
  </g>
  <g transform="translate(23.1,33.66)">
    <path fill="none" d="M1.57,-0.25 L-1.57,0.25 " class="primitive"></path>
  </g>
  <g transform="translate(27.28,34.06)">
    <path fill="none" d="M-0.2,-0.13 L0.2,0.13 " class="primitive"></path>
  </g>
  <g transform="translate(25.77,28.95)">
    <path fill="none" d="M0.14,2.94 L-0.14,-2.94 " class="primitive"></path>
  </g>
  <g transform="translate(50.35,52.63)">
    <path fill="none" d="M3.52,2.61 L-3.52,-2.61 " class="primitive"></path>
  </g>
  <g transform="translate(58.46,61.55)">
    <path fill="none" d="M-2.82,-4.4 L2.82,4.4 " class="primitive"></path>
  </g>
  <g transform="translate(36.83,51.82)">
    <path fill="none" d="M-4.59,-1.3 L4.59,1.3 " class="primitive"></path>
  </g>
  <g transform="translate(35.92,50.49)">
    <path fill="none" d="M-3.62,-0.24 L3.62,0.24 " class="primitive"></path>
  </g>
  <g transform="translate(25.58,53.01)">
    <path fill="none" d="M4.23,-2.23 L-4.23,2.23 " class="primitive"></path>
  </g>
  <g transform="translate(27.86,54.26)">
    <path fill="none" d="M2.31,-3.05 L-2.31,3.05 " class="primitive"></path>
  </g>
  <g transform="translate(34.5,47.83)">
    <path fill="none" d="M-2.42,1.6 L2.42,-1.6 " class="primitive"></path>
  </g>
  <g transform="translate(28.57,45.47)">
    <path fill="none" d="M1.8,3.51 L-1.8,-3.51 " class="primitive"></path>
  </g>
  <g transform="translate(21.37,35.11)">
    <path fill="none" d="M0.14,0.13 L-0.14,-0.13 " class="primitive"></path>
  </g>
  <g transform="translate(21.59,42.4)">
    <path fill="none" d="M0.73,-4.99 L-0.73,4.99 " class="primitive"></path>
  </g>
  <g transform="translate(24.59,42.4)">
    <path fill="none" d="M-1.66,-5.04 L1.66,5.04 " class="primitive"></path>
  </g>
  <g transform="translate(25.55,35.51)">
    <path fill="none" d="M-1.74,0.34 L1.74,-0.34 " class="primitive"></path>
  </g>
  <g transform="translate(24.04,30.39)">
    <path fill="none" d="M-1.18,4.43 L1.18,-4.43 " class="primitive"></path>
  </g>
  <g transform="translate(38.15,41.49)">
    <path fill="none" d="M-2.34,-8.07 L2.34,8.07 " class="primitive"></path>
  </g>
  <g transform="translate(32.01,33.53)">
    <path fill="none" d="M2.2,-0.89 L-2.2,0.89 " class="primitive"></path>
  </g>
  <g transform="translate(30.5,28.42)">
    <path fill="none" d="M3.88,2.93 L-3.88,-2.93 " class="primitive"></path>
  </g>
  <g transform="translate(22.14,32.45)">
    <path fill="none" d="M0.92,-0.8 L-0.92,0.8 " class="primitive"></path>
  </g>
  <g transform="translate(26.32,32.85)">
    <path fill="none" d="M-1.29,-1.18 L1.29,1.18 " class="primitive"></path>
  </g>
  <g transform="translate(24.81,27.73)">
    <path fill="none" d="M-0.44,1.76 L0.44,-1.76 " class="primitive"></path>
  </g>
  <g transform="translate(66.32,59.08)">
    <path fill="none" d="M1.18,1.62 L-1.18,-1.62 " class="primitive"></path>
  </g>
  <g transform="translate(64.7,61.54)">
    <path fill="none" d="M2.26,0.15 L-2.26,-0.15 " class="primitive"></path>
  </g>
  <g transform="translate(62.74,58.85)">
    <path fill="none" d="M0.89,-1.36 L-0.89,1.36 " class="primitive"></path>
  </g>
  <g transform="translate(44.23,51.36)">
    <path fill="none" d="M-0.76,1.05 L0.76,-1.05 " class="primitive"></path>
  </g>
  <g transform="translate(40.36,49.49)">
    <path fill="none" d="M1.66,2.85 L-1.66,-2.85 " class="primitive"></path>
  </g>
  <g transform="translate(15.6,29.27)">
    <path fill="none" d="M3.71,3.89 L-3.71,-3.89 " class="primitive"></path>
  </g>
  <g transform="translate(18.78,42.97)">
    <path fill="none" d="M1.23,-7.54 L-1.23,7.54 " class="primitive"></path>
  </g>
  <g transform="translate(24.4,34.52)">
    <path fill="none" d="M-2.86,-0.27 L2.86,0.27 " class="primitive"></path>
  </g>
  <g transform="translate(22.89,29.4)">
    <path fill="none" d="M-2.02,3.56 L2.02,-3.56 " class="primitive"></path>
  </g>
  <g transform="translate(20.73,39.3)">
    <path fill="none" d="M-0.38,-3.86 L0.38,3.86 " class="primitive"></path>
  </g>
  <g transform="translate(40.09,46.14)">
    <path fill="none" d="M4.52,2.46 L-4.52,-2.46 " class="primitive"></path>
  </g>
  <g transform="translate(41.9,47.37)">
    <path fill="none" d="M2.68,1.29 L-2.68,-1.29 " class="primitive"></path>
  </g>
  <g transform="translate(87.11,78.3)">
    <path fill="none" d="M-3.31,-1.17 L3.31,1.17 " class="primitive"></path>
  </g>
  <g transform="translate(20.95,54.56)">
    <path fill="none" d="M-0.22,-4.54 L0.22,4.54 " class="primitive"></path>
  </g>
  <g transform="translate(23.67,48.69)">
    <path fill="none" d="M-1.68,0 L1.68,-0 " class="primitive"></path>
  </g>
  <g transform="translate(20.42,52.28)">
    <path fill="none" d="M0.16,-2.26 L-0.16,2.26 " class="primitive"></path>
  </g>
  <g transform="translate(26.86,48.44)">
    <path fill="none" d="M-4.87,0.2 L4.87,-0.2 " class="primitive"></path>
  </g>
  <g transform="translate(19,50.26)">
    <path fill="none" d="M0.7,-0.66 L-0.7,0.66 " class="primitive"></path>
  </g>
  <g transform="translate(23.41,44.74)">
    <path fill="none" d="M-1.99,2.87 L1.99,-2.87 " class="primitive"></path>
  </g>
  <g transform="translate(23.95,54.56)">
    <path fill="none" d="M-2.17,4.67 L2.17,-4.67 " class="primitive"></path>
  </g>
  <g transform="translate(22.99,59.4)">
    <path fill="none" d="M-0.62,0.36 L0.62,-0.36 " class="primitive"></path>
  </g>
  <g transform="translate(19.68,67.65)">
    <path fill="none" d="M1.27,-5.93 L-1.27,5.93 " class="primitive"></path>
  </g>
  <g transform="translate(33.76,49.76)">
    <path fill="none" d="M5.78,0.87 L-5.78,-0.87 " class="primitive"></path>
  </g>
  <g transform="translate(47.11,58.47)">
    <path fill="none" d="M-5.41,-6.61 L5.41,6.61 " class="primitive"></path>
  </g>
  <g transform="translate(36.95,49.5)">
    <path fill="none" d="M2.65,0.9 L-2.65,-0.9 " class="primitive"></path>
  </g>
  <g transform="translate(38.83,44.5)">
    <path fill="none" d="M1.62,5.07 L-1.62,-5.07 " class="primitive"></path>
  </g>
  <g transform="translate(29.86,48.43)">
    <path fill="none" d="M-1.87,0.15 L1.87,-0.15 " class="primitive"></path>
  </g>
  <g transform="translate(22,50.25)">
    <path fill="none" d="M3.42,-1.14 L-3.42,1.14 " class="primitive"></path>
  </g>
  <g transform="translate(27.63,41.8)">
    <path fill="none" d="M-0.77,5.58 L0.77,-5.58 " class="primitive"></path>
  </g>
  <g transform="translate(20.87,48.87)">
    <path fill="none" d="M4.48,-0.14 L-4.48,0.14 " class="primitive"></path>
  </g>
  <g transform="translate(18.75,53.84)">
    <path fill="none" d="M0.66,0.94 L-0.66,-0.94 " class="primitive"></path>
  </g>
  <g transform="translate(22.46,57.11)">
    <path fill="none" d="M-1.13,-0.62 L1.13,0.62 " class="primitive"></path>
  </g>
  <g transform="translate(20.7,50.17)">
    <path fill="none" d="M-0.41,4.38 L0.41,-4.38 " class="primitive"></path>
  </g>
  <g transform="translate(16.24,61.98)">
    <path fill="none" d="M3.22,-5.01 L-3.22,5.01 " class="primitive"></path>
  </g>
  <g transform="translate(59.94,71.27)">
    <path fill="none" d="M-5.54,-4.35 L5.54,4.35 " class="primitive"></path>
  </g>
  <g transform="translate(27.14,46.33)">
    <path fill="none" d="M4.65,1.46 L-4.65,-1.46 " class="primitive"></path>
  </g>
  <g transform="translate(64.27,67.83)">
    <path fill="none" d="M1.03,0.34 L-1.03,-0.34 " class="primitive"></path>
  </g>
  <g transform="translate(66.54,72.51)">
    <path fill="none" d="M0.01,-2.59 L-0.01,2.59 " class="primitive"></path>
  </g>
  <g transform="translate(36.22,44.27)">
    <path fill="none" d="M-0.71,-0.48 L0.71,0.48 " class="primitive"></path>
  </g>
  <g transform="translate(30.29,41.92)">
    <path fill="none" d="M2.85,0.78 L-2.85,-0.78 " class="primitive"></path>
  </g>
  <g transform="translate(17.57,60.12)">
    <path fill="none" d="M-0.2,-6.98 L0.2,6.98 " class="primitive"></path>
  </g>
  <g transform="translate(12.83,52.71)">
    <path fill="none" d="M3.2,-0.63 L-3.2,0.63 " class="primitive"></path>
  </g>
  <g transform="translate(27.37,37.85)">
    <path fill="none" d="M0.71,-1.71 L-0.71,1.71 " class="primitive"></path>
  </g>
  <g transform="translate(27.07,29.8)">
    <path fill="none" d="M1.13,3.85 L-1.13,-3.85 " class="primitive"></path>
  </g>
  <g transform="translate(32.69,36.54)">
    <path fill="none" d="M-2.88,-1.14 L2.88,1.14 " class="primitive"></path>
  </g>
  <g transform="translate(17.97,71.64)">
    <path fill="none" d="M-0.1,-1.9 L0.1,1.9 " class="primitive"></path>
  </g>
  <g transform="translate(68.39,84.05)">
    <path fill="none" d="M1.55,6.33 L-1.55,-6.33 " class="primitive"></path>
  </g>
  <g transform="translate(25.86,32.74)">
    <path fill="none" d="M0.25,6.73 L-0.25,-6.73 " class="primitive"></path>
  </g>
  <g transform="translate(27.71,20.87)">
    <path fill="none" d="M-1.5,2.67 L1.5,-2.67 " class="primitive"></path>
  </g>
  <g transform="translate(11.7,51.32)">
    <path fill="none" d="M-2.27,1.53 L2.27,-1.53 " class="primitive"></path>
  </g>
  <g transform="translate(64.25,71.75)">
    <path fill="none" d="M-1.69,-3.49 L1.69,3.49 " class="primitive"></path>
  </g>
</g>
<g fill="#D3D3D3" id="img-1eb8643c-4">
</g>
<g fill="#D3D3D3" id="img-1eb8643c-5">
</g>
<g font-size="4" fill="#000000" id="img-1eb8643c-6">
</g>
<g stroke-width="0" stroke="#000000" stroke-opacity="0.000" id="img-1eb8643c-7">
  <g transform="translate(32.65,39.66)" fill="#0000FF">
    <circle cx="0" cy="0" r="1.27" class="primitive"></circle>
  </g>
  <g transform="translate(55.9,60.71)" fill="#A0FF35">
    <circle cx="0" cy="0" r="1.27" class="primitive"></circle>
  </g>
  <g transform="translate(23.84,45.95)" fill="#24390F">
    <circle cx="0" cy="0" r="1.27" class="primitive"></circle>
  </g>
  <g transform="translate(31.41,43.36)" fill="#FF987F">
    <circle cx="0" cy="0" r="1.27" class="primitive"></circle>
  </g>
  <g transform="translate(20.48,10.1)" fill="#00D1FF">
    <circle cx="0" cy="0" r="1.27" class="primitive"></circle>
  </g>
  <g transform="translate(75.34,80.97)" fill="#8E0200">
    <circle cx="0" cy="0" r="1.27" class="primitive"></circle>
  </g>
  <g transform="translate(70.57,77.45)" fill="#C18CFF">
    <circle cx="0" cy="0" r="1.27" class="primitive"></circle>
  </g>
  <g transform="translate(50.02,56.65)" fill="#A48700">
    <circle cx="0" cy="0" r="1.27" class="primitive"></circle>
  </g>
  <g transform="translate(34.94,46.29)" fill="#1D001E">
    <circle cx="0" cy="0" r="1.27" class="primitive"></circle>
  </g>
  <g transform="translate(73.87,75.22)" fill="#009775">
    <circle cx="0" cy="0" r="1.27" class="primitive"></circle>
  </g>
  <g transform="translate(29.2,39.2)" fill="#68636F">
    <circle cx="0" cy="0" r="1.27" class="primitive"></circle>
  </g>
  <g transform="translate(24.91,8.33)" fill="#FFFDFF">
    <circle cx="0" cy="0" r="1.27" class="primitive"></circle>
  </g>
  <g transform="translate(9.1,46.6)" fill="#EF007A">
    <circle cx="0" cy="0" r="1.27" class="primitive"></circle>
  </g>
  <g transform="translate(71.84,73.09)" fill="#007DD9">
    <circle cx="0" cy="0" r="1.27" class="primitive"></circle>
  </g>
  <g transform="translate(24.79,47.11)" fill="#005761">
    <circle cx="0" cy="0" r="1.27" class="primitive"></circle>
  </g>
  <g transform="translate(31.27,30.79)" fill="#00FCD4">
    <circle cx="0" cy="0" r="1.27" class="primitive"></circle>
  </g>
  <g transform="translate(24.08,52.39)" fill="#FFDE8F">
    <circle cx="0" cy="0" r="1.27" class="primitive"></circle>
  </g>
  <g transform="translate(65.59,72.64)" fill="#9D9D90">
    <circle cx="0" cy="0" r="1.27" class="primitive"></circle>
  </g>
  <g transform="translate(25.97,33.2)" fill="#820360">
    <circle cx="0" cy="0" r="1.27" class="primitive"></circle>
  </g>
  <g transform="translate(54.93,56.03)" fill="#9E6B51">
    <circle cx="0" cy="0" r="1.27" class="primitive"></circle>
  </g>
  <g transform="translate(30.98,50.16)" fill="#3B2200">
    <circle cx="0" cy="0" r="1.27" class="primitive"></circle>
  </g>
  <g transform="translate(22.51,36.1)" fill="#FFB7D8">
    <circle cx="0" cy="0" r="1.27" class="primitive"></circle>
  </g>
  <g transform="translate(69.12,86.27)" fill="#08181D">
    <circle cx="0" cy="0" r="1.27" class="primitive"></circle>
  </g>
  <g transform="translate(35.44,32.15)" fill="#FF9600">
    <circle cx="0" cy="0" r="1.27" class="primitive"></circle>
  </g>
  <g transform="translate(24.05,30.77)" fill="#227500">
    <circle cx="0" cy="0" r="1.27" class="primitive"></circle>
  </g>
  <g transform="translate(68.28,61.77)" fill="#72AB37">
    <circle cx="0" cy="0" r="1.27" class="primitive"></circle>
  </g>
  <g transform="translate(64.37,56.39)" fill="#F40014">
    <circle cx="0" cy="0" r="1.27" class="primitive"></circle>
  </g>
  <g transform="translate(61.12,61.31)" fill="#67674F">
    <circle cx="0" cy="0" r="1.27" class="primitive"></circle>
  </g>
  <g transform="translate(42.69,53.48)" fill="#004786">
    <circle cx="0" cy="0" r="1.27" class="primitive"></circle>
  </g>
  <g transform="translate(20.22,34.12)" fill="#C721DD">
    <circle cx="0" cy="0" r="1.27" class="primitive"></circle>
  </g>
  <g transform="translate(45.77,49.24)" fill="#A77D95">
    <circle cx="0" cy="0" r="1.27" class="primitive"></circle>
  </g>
  <g transform="translate(60.73,84.22)" fill="#9BBCFF">
    <circle cx="0" cy="0" r="1.27" class="primitive"></circle>
  </g>
  <g transform="translate(82.55,76.69)" fill="#52939E">
    <circle cx="0" cy="0" r="1.27" class="primitive"></circle>
  </g>
  <g transform="translate(20.67,48.69)" fill="#C6DCC6">
    <circle cx="0" cy="0" r="1.27" class="primitive"></circle>
  </g>
  <g transform="translate(21.23,60.43)" fill="#4F0317">
    <circle cx="0" cy="0" r="1.27" class="primitive"></circle>
  </g>
  <g transform="translate(10.97,24.42)" fill="#70599F">
    <circle cx="0" cy="0" r="1.27" class="primitive"></circle>
  </g>
  <g transform="translate(40.86,50.83)" fill="#794900">
    <circle cx="0" cy="0" r="1.27" class="primitive"></circle>
  </g>
  <g transform="translate(26.67,48.69)" fill="#76474A">
    <circle cx="0" cy="0" r="1.27" class="primitive"></circle>
  </g>
  <g transform="translate(20.17,55.86)" fill="#3A2767">
    <circle cx="0" cy="0" r="1.27" class="primitive"></circle>
  </g>
  <g transform="translate(53.36,66.1)" fill="#FFFB00">
    <circle cx="0" cy="0" r="1.27" class="primitive"></circle>
  </g>
  <g transform="translate(33.05,48.18)" fill="#8287AD">
    <circle cx="0" cy="0" r="1.27" class="primitive"></circle>
  </g>
  <g transform="translate(66.55,68.6)" fill="#FFD5C4">
    <circle cx="0" cy="0" r="1.27" class="primitive"></circle>
  </g>
  <g transform="translate(34.41,43.04)" fill="#006141">
    <circle cx="0" cy="0" r="1.27" class="primitive"></circle>
  </g>
  <g transform="translate(17.33,51.82)" fill="#B6ACB7">
    <circle cx="0" cy="0" r="1.27" class="primitive"></circle>
  </g>
  <g transform="translate(24.75,58.37)" fill="#FF6EC6">
    <circle cx="0" cy="0" r="1.27" class="primitive"></circle>
  </g>
  <g transform="translate(28.58,34.92)" fill="#C5F0FF">
    <circle cx="0" cy="0" r="1.27" class="primitive"></circle>
  </g>
  <g transform="translate(17.81,68.41)" fill="#3E3034">
    <circle cx="0" cy="0" r="1.27" class="primitive"></circle>
  </g>
  <g transform="translate(38.03,45.5)" fill="#6CBDAE">
    <circle cx="0" cy="0" r="1.27" class="primitive"></circle>
  </g>
  <g transform="translate(70.26,91.67)" fill="#00D177">
    <circle cx="0" cy="0" r="1.27" class="primitive"></circle>
  </g>
  <g transform="translate(18.14,74.87)" fill="#BB956C">
    <circle cx="0" cy="0" r="1.27" class="primitive"></circle>
  </g>
  <g transform="translate(26.16,40.79)" fill="#E2630D">
    <circle cx="0" cy="0" r="1.27" class="primitive"></circle>
  </g>
  <g transform="translate(25.56,24.69)" fill="#FF667C">
    <circle cx="0" cy="0" r="1.27" class="primitive"></circle>
  </g>
  <g transform="translate(21.23,44.47)" fill="#B30047">
    <circle cx="0" cy="0" r="1.27" class="primitive"></circle>
  </g>
  <g transform="translate(8.33,53.59)" fill="#191800">
    <circle cx="0" cy="0" r="1.27" class="primitive"></circle>
  </g>
  <g transform="translate(61.99,67.07)" fill="#00F6FF">
    <circle cx="0" cy="0" r="1.27" class="primitive"></circle>
  </g>
  <g transform="translate(29.85,17.04)" fill="#00AAFD">
    <circle cx="0" cy="0" r="1.27" class="primitive"></circle>
  </g>
  <g transform="translate(78.51,86.26)" fill="#AAFEB0">
    <circle cx="0" cy="0" r="1.27" class="primitive"></circle>
  </g>
  <g transform="translate(66.52,76.43)" fill="#AF4200">
    <circle cx="0" cy="0" r="1.27" class="primitive"></circle>
  </g>
  <g transform="translate(12.31,68.11)" fill="#4F5900">
    <circle cx="0" cy="0" r="1.27" class="primitive"></circle>
  </g>
  <g transform="translate(36.81,38.16)" fill="#B15F66">
    <circle cx="0" cy="0" r="1.27" class="primitive"></circle>
  </g>
  <g transform="translate(91.67,79.91)" fill="#C2C959">
    <circle cx="0" cy="0" r="1.27" class="primitive"></circle>
  </g>
  <g transform="translate(15.07,49.05)" fill="#E2CDFF">
    <circle cx="0" cy="0" r="1.27" class="primitive"></circle>
  </g>
</g>
<g font-family="Helvetica" font-size="4" fill="#000000" id="img-1eb8643c-8">
</g>
<g font-family="Helvetica" font-size="4" fill="#000000" id="img-1eb8643c-9">
  <g transform="translate(50,0)">
    <g class="primitive">
      <text text-anchor="middle" dy="0.35em"></text>
    </g>
  </g>
</g>
</svg>